<?xml version="1.0" encoding="UTF-8"?>
<svg version="1.1" xmlns="http://www.w3.org/2000/svg" width="1254" height="1254">
<path d="M0 0 C413.82 0 827.64 0 1254 0 C1254 413.82 1254 827.64 1254 1254 C840.18 1254 426.36 1254 0 1254 C0 840.18 0 426.36 0 0 Z " fill="#000000" transform="translate(0,0)"/>
<path d="M0 0 C67.65 0 135.3 0 205 0 C205 10.56 205 21.12 205 32 C235.03 32 265.06 32 296 32 C296 43.22 296 54.44 296 66 C316.46 66 336.92 66 358 66 C358 77.88 358 89.76 358 102 C370.21 102 382.42 102 395 102 C395 113.88 395 125.76 395 138 C406.88 138 418.76 138 431 138 C431 150.87 431 163.74 431 177 C442.55 177 454.1 177 466 177 C466 199.11 466 221.22 466 244 C476.89 244 487.78 244 499 244 C499 279.97 499 315.94 499 353 C437.62 353 376.24 353 313 353 C313 328.91 313 304.82 313 280 C301.12 280 289.24 280 277 280 C277 268.12 277 256.24 277 244 C265.45 244 253.9 244 242 244 C242 232.12 242 220.24 242 208 C217.91 208 193.82 208 169 208 C169 197.77 169 187.54 169 177 C126.76 177 84.52 177 41 177 C41 187.23 41 197.46 41 208 C15.59 208 -9.82 208 -36 208 C-36 219.88 -36 231.76 -36 244 C-47.22 244 -58.44 244 -70 244 C-70 255.88 -70 267.76 -70 280 C-81.55 280 -93.1 280 -105 280 C-105 304.09 -105 328.18 -105 353 C-116.22 353 -127.44 353 -139 353 C-139 410.75 -139 468.5 -139 528 C-127.78 528 -116.56 528 -105 528 C-105 552.09 -105 576.18 -105 601 C-93.45 601 -81.9 601 -70 601 C-70 612.88 -70 624.76 -70 637 C-58.78 637 -47.56 637 -36 637 C-36 649.21 -36 661.42 -36 674 C-10.59 674 14.82 674 41 674 C41 684.89 41 695.78 41 707 C83.24 707 125.48 707 169 707 C169 696.11 169 685.22 169 674 C193.09 674 217.18 674 242 674 C242 661.79 242 649.58 242 637 C253.55 637 265.1 637 277 637 C277 625.12 277 613.24 277 601 C288.88 601 300.76 601 313 601 C313 576.91 313 552.82 313 528 C374.38 528 435.76 528 499 528 C499 563.97 499 599.94 499 637 C487.78 637 476.56 637 465 637 C465 659.11 465 681.22 465 704 C453.45 704 441.9 704 430 704 C430 716.21 430 728.42 430 741 C418.12 741 406.24 741 394 741 C394 752.88 394 764.76 394 777 C382.78 777 371.56 777 360 777 C360 787.89 360 798.78 360 810 C338.88 810 317.76 810 296 810 C296 821.88 296 833.76 296 846 C265.97 846 235.94 846 205 846 C205 857.55 205 869.1 205 881 C137.35 881 69.7 881 0 881 C0 869.45 0 857.9 0 846 C-28.38 846 -56.76 846 -86 846 C-86 834.12 -86 822.24 -86 810 C-107.12 810 -128.24 810 -150 810 C-150 799.11 -150 788.22 -150 777 C-161.55 777 -173.1 777 -185 777 C-185 765.12 -185 753.24 -185 741 C-196.88 741 -208.76 741 -221 741 C-221 718.56 -221 696.12 -221 673 C-232.88 673 -244.76 673 -257 673 C-257 661.12 -257 649.24 -257 637 C-268.88 637 -280.76 637 -293 637 C-293 607.63 -293 578.26 -293 548 C-301.58 548 -310.16 548 -319 548 C-319 476.72 -319 405.44 -319 332 C-310.42 332 -301.84 332 -293 332 C-293 302.96 -293 273.92 -293 244 C-281.12 244 -269.24 244 -257 244 C-257 232.12 -257 220.24 -257 208 C-245.12 208 -233.24 208 -221 208 C-221 184.9 -221 161.8 -221 138 C-209.12 138 -197.24 138 -185 138 C-185 126.12 -185 114.24 -185 102 C-173.45 102 -161.9 102 -150 102 C-150 90.12 -150 78.24 -150 66 C-128.88 66 -107.76 66 -86 66 C-86 54.78 -86 43.56 -86 32 C-57.62 32 -29.24 32 0 32 C0 21.44 0 10.88 0 0 Z " fill="#FB3A61" transform="translate(537,161)"/>
<path d="M0 0 C0.33 0 0.66 0 1 0 C2.03405665 4.2654837 2 7.37316973 2 12 C-22.75 12 -47.5 12 -73 12 C-72.67 11.01 -72.34 10.02 -72 9 C-71.01 9.33 -70.02 9.66 -69 10 C-67.42095082 10.09195255 -65.83831534 10.12790656 -64.2565918 10.12939453 C-63.29516769 10.13254669 -62.33374359 10.13569885 -61.34318542 10.13894653 C-59.78692192 10.13591019 -59.78692192 10.13591019 -58.19921875 10.1328125 C-57.13008743 10.13376923 -56.06095612 10.13472595 -54.95942688 10.13571167 C-52.69568829 10.13639258 -50.43194774 10.13454447 -48.16821289 10.13037109 C-44.7117063 10.12503735 -41.25533058 10.13031097 -37.79882812 10.13671875 C-35.59895805 10.13605764 -33.39908805 10.13477581 -31.19921875 10.1328125 C-29.65206429 10.13584885 -29.65206429 10.13584885 -28.07365417 10.13894653 C-23.25590195 10.12330472 -18.7435401 9.93925124 -14 9 C-9.783575 8.85205526 -6.11597888 9.17680422 -2 10 C-1.34 9.67 -0.68 9.34 0 9 C0 6.03 0 3.06 0 0 Z " fill="#F94568" transform="translate(575,356)"/>
<path d="M0 0 C6.625 -0.125 6.625 -0.125 10 1 C11.98685416 1.08400072 13.97648209 1.10727775 15.96508789 1.09765625 C17.80829369 1.09270142 17.80829369 1.09270142 19.68873596 1.08764648 C20.6738576 1.08146805 20.6738576 1.08146805 21.67888069 1.07516479 C23.74438129 1.06236538 25.80981734 1.05587508 27.87535095 1.05102539 C33.0115388 1.03767126 38.14766619 1.01361548 43.28381348 0.98962402 C47.61606452 0.96976339 51.94829159 0.954169 56.28057671 0.94406128 C58.29994806 0.93765143 60.31929686 0.92507704 62.33863831 0.91235352 C69.29395276 0.89398632 76.09852012 1.10634207 83 2 C83 2.33 83 2.66 83 3 C54.95 3 26.9 3 -2 3 C-1.34 2.67 -0.68 2.34 0 2 C0 1.34 0 0.68 0 0 Z " fill="#FC4671" transform="translate(454,1003)"/>
<path d="M0 0 C0 0.66 0 1.32 0 2 C0.99 2.495 0.99 2.495 2 3 C-21.1 3 -44.2 3 -68 3 C-68 2.67 -68 2.34 -68 2 C-67.20264435 1.98969254 -66.4052887 1.97938507 -65.58377075 1.96876526 C-58.0790848 1.87089432 -50.57448326 1.76839487 -43.06993294 1.66066074 C-39.21152754 1.60543434 -35.35311456 1.55201481 -31.49462891 1.50268555 C-27.77281878 1.45503779 -24.05110191 1.40269486 -20.32940292 1.34705925 C-18.90762522 1.32663755 -17.48582194 1.30792415 -16.06399918 1.29092598 C-14.07662369 1.26687819 -12.08933095 1.23626002 -10.10205078 1.20532227 C-8.96953888 1.18977798 -7.83702698 1.1742337 -6.67019653 1.15821838 C-4.11041284 1.00654234 -2.49540761 0 0 0 Z " fill="#FE4469" transform="translate(777,365)"/>
<path d="M0 0 C0.33 0 0.66 0 1 0 C1.33 10.89 1.66 21.78 2 33 C3.65 33 5.3 33 7 33 C7.33 33.66 7.66 34.32 8 35 C5.36 35 2.72 35 0 35 C0 23.45 0 11.9 0 0 Z " fill="#F94268" transform="translate(353,902)"/>
<path d="M0 0 C0.99 0.33 1.98 0.66 3 1 C3 1.66 3 2.32 3 3 C-7.56 3 -18.12 3 -29 3 C-29 2.67 -29 2.34 -29 2 C-22.60985486 1.17546514 -16.43707771 0.89957757 -10 1 C-6.99458194 1.04519426 -4.00650825 1.04772235 -1 1 C-0.67 0.67 -0.34 0.34 0 0 Z " fill="#FB456D" transform="translate(1032,794)"/>
<path d="M0 0 C0.33 0 0.66 0 1 0 C1.90413673 3.83724172 2.10576898 7.37502274 2.0625 11.3125 C2.05347656 12.38113281 2.04445313 13.44976563 2.03515625 14.55078125 C2.02355469 15.35902344 2.01195312 16.16726563 2 17 C-0.42472438 14.48177725 -0.99254989 13.32466794 -1.07421875 9.765625 C-0.94660156 8.60546875 -0.81898438 7.4453125 -0.6875 6.25 C-0.56761719 5.07953125 -0.44773437 3.9090625 -0.32421875 2.703125 C-0.21722656 1.81109375 -0.11023438 0.9190625 0 0 Z " fill="#F9416B" transform="translate(499,814)"/>
<path d="M0 0 C4.95 0 9.9 0 15 0 C15 0.33 15 0.66 15 1 C13.71802734 1.09087891 13.71802734 1.09087891 12.41015625 1.18359375 C10.75306641 1.30927734 10.75306641 1.30927734 9.0625 1.4375 C7.96035156 1.51871094 6.85820313 1.59992187 5.72265625 1.68359375 C3.08890097 1.70418084 3.08890097 1.70418084 2 3 C1.76924918 4.34747084 1.58846937 5.70377565 1.4375 7.0625 C1.293125 8.361875 1.14875 9.66125 1 11 C0.67 11 0.34 11 0 11 C0 7.37 0 3.74 0 0 Z " fill="#0E0305" transform="translate(744,1008)"/>
<path d="M0 0 C2.97 0 5.94 0 9 0 C8.01 1.485 8.01 1.485 7 3 C3.875 3.1875 3.875 3.1875 1 3 C0.67 2.01 0.34 1.02 0 0 Z " fill="#F84569" transform="translate(395,228)"/>
</svg>
